<?xml version="1.0" encoding="UTF-8"?>
<!DOCTYPE svg PUBLIC "-//W3C//DTD SVG 1.1//EN" "http://www.w3.org/Graphics/SVG/1.1/DTD/svg11.dtd">
<!-- Creator: CorelDRAW X7 -->
<svg xmlns="http://www.w3.org/2000/svg" xml:space="preserve" width="10.86mm" height="11.6137mm" version="1.1" style="shape-rendering:geometricPrecision; text-rendering:geometricPrecision; image-rendering:optimizeQuality; fill-rule:evenodd; clip-rule:evenodd"
viewBox="0 0 35 37"
 xmlns:xlink="http://www.w3.org/1999/xlink">
 <defs>
  <style type="text/css">
   <![CDATA[
    .fil0 {fill:#FEFEFE;fill-rule:nonzero}
   ]]>
  </style>
 </defs>
 <g id="Layer_x0020_1">
  <metadata id="CorelCorpID_0Corel-Layer"/>
  <g id="_671538576">
   <polygon class="fil0" points="5,19 5,19 0,15 0,15 0,37 12,25 "/>
   <path class="fil0" d="M8 15c0,0 1,0 1,0l17 0c0,0 0,0 0,0 0,0 0,1 0,1l-17 0c0,0 -1,-1 -1,-1zm1 -4l17 0c0,0 0,1 0,1 0,0 0,0 0,0l-17 0c0,0 -1,0 -1,0 0,0 1,-1 1,-1zm0 -3l10 0c0,0 0,0 0,0 0,0 0,1 0,1l-10 0c0,0 -1,-1 -1,-1 0,0 1,0 1,0zm4 16l0 0 1 1 0 0c1,1 1,1 1,1l0 0 0 0c0,0 0,0 0,0 0,0 0,0 0,0 0,0 1,0 1,0l0 0c0,0 0,0 0,0l0 0c0,0 0,0 0,0l2 0c1,0 1,0 1,0l0 0c0,0 0,0 0,0l0 0c0,0 0,0 1,0 0,0 0,0 0,0 0,0 0,0 0,0l0 0 0 0c0,0 0,0 0,-1l9 -6 0 -15 -23 0 0 14 7 6c0,0 0,0 0,0z"/>
   <polygon class="fil0" points="5,18 5,10 0,14 1,15 "/>
   <polygon class="fil0" points="17,0 13,3 21,3 "/>
   <polygon class="fil0" points="30,10 30,18 34,14 "/>
   <polygon class="fil0" points="23,25 35,36 35,15 "/>
   <path class="fil0" d="M21 26c0,0 0,0 0,0l-1 0c0,0 0,0 0,0 0,0 0,1 0,1 0,0 0,0 0,0 0,0 0,0 -1,0l0 0c0,0 0,0 0,0l0 0c0,0 0,0 0,0l0 0c0,0 0,0 0,0l0 0c-1,0 -1,0 -1,0l0 0c0,0 0,0 0,0l0 0c0,0 0,0 0,0l0 0c0,0 0,0 0,0l-1 0c0,0 0,0 0,0l0 0c0,0 0,0 0,0l0 0c0,0 0,0 0,0l0 0c0,0 0,0 0,0l0 0c-1,0 -1,0 -1,0l0 0c0,0 0,0 0,0l0 0c0,0 -1,0 -1,0l0 0c0,0 0,0 -1,0 0,0 0,0 0,0 0,0 0,-1 0,-1 0,0 0,0 0,0l0 0c0,0 0,0 0,0l-1 -1 -12 12 33 0 -12 -12 -1 1z"/>
  </g>
 </g>
</svg>
