<?xml version="1.0" encoding="UTF-8"?>
<!DOCTYPE svg PUBLIC "-//W3C//DTD SVG 1.1//EN" "http://www.w3.org/Graphics/SVG/1.1/DTD/svg11.dtd">
<!-- Creator: CorelDRAW X7 -->
<svg xmlns="http://www.w3.org/2000/svg" xml:space="preserve" width="72.051mm" height="10.3mm" version="1.1" style="shape-rendering:geometricPrecision; text-rendering:geometricPrecision; image-rendering:optimizeQuality; fill-rule:evenodd; clip-rule:evenodd"
viewBox="0 0 769 110"
 xmlns:xlink="http://www.w3.org/1999/xlink">
 <defs>
  <style type="text/css">
   <![CDATA[
    .fil0 {fill:#662E21;fill-rule:nonzero}
   ]]>
  </style>
 </defs>
 <g id="Layer_x0020_1">
  <metadata id="CorelCorpID_0Corel-Layer"/>
  <g id="_691255008">
   <path class="fil0" d="M372 59c-8,-1 -17,-1 -25,-1 0,-1 0,-1 -1,-2 1,-5 -13,-18 -15,-21 -7,-9 -23,-24 -36,-17 -12,6 -3,19 4,25 7,6 15,9 23,13 1,0 2,1 3,1 -9,1 -17,1 -26,1 -5,0 -11,0 -17,0 -2,-8 -7,-15 -10,-23 -4,-8 -9,-16 -15,-23 -7,-7 -26,-19 -34,-7 -8,13 5,29 14,37 8,6 19,12 29,16 -15,-1 -30,-1 -44,-1 -3,0 -5,0 -7,0 -2,-17 -24,-33 -37,-43 -12,-9 -41,-22 -54,-7 -10,12 7,26 16,31 9,6 22,8 32,11 10,2 19,6 28,8 -23,0 -46,0 -69,0 0,0 -1,0 -1,-1 0,0 0,0 -1,0 -6,-7 -13,-12 -21,-17 -10,-6 -20,-13 -31,-18 -10,-3 -39,-11 -44,4 -5,13 14,21 22,24 12,4 24,5 36,7 3,1 6,1 9,2 -4,0 -7,0 -10,0 -12,-2 -24,-3 -36,-5 -9,-3 -18,-5 -28,-6 -10,-1 -31,4 -25,18 4,10 22,12 31,12 9,1 18,0 26,-3 14,-3 27,-8 40,-12 16,1 32,1 47,1 -4,1 -8,3 -12,4 -11,4 -26,9 -30,21 -5,12 13,21 22,19 10,-3 18,-8 25,-15 11,-10 14,-23 28,-29 13,0 26,0 39,0 13,0 26,0 40,0 -7,2 -13,6 -19,10 -8,5 -20,18 -13,29 6,11 19,9 29,4 18,-8 19,-28 28,-43 4,0 8,0 12,0 11,0 22,0 32,0 -18,7 -40,23 -25,38 7,7 20,-1 26,-6 9,-7 17,-20 21,-32 0,0 0,0 0,0 8,-1 16,-1 24,-2 1,0 1,-2 0,-2z"/>
   <path class="fil0" d="M397 59c9,-1 17,-1 25,-1 1,-1 1,-1 1,-2 0,-5 14,-18 16,-21 7,-9 23,-24 36,-17 11,6 3,19 -4,25 -7,6 -16,9 -24,13 -1,0 -2,1 -3,1 9,1 18,1 26,1 6,0 12,0 17,0 3,-8 8,-15 11,-23 4,-8 8,-16 14,-23 7,-7 26,-19 34,-7 8,13 -4,29 -14,37 -7,6 -18,12 -29,16 15,-1 30,-1 45,-1 2,0 5,0 7,0 1,-17 23,-33 36,-43 12,-9 42,-22 54,-7 10,12 -6,26 -15,31 -10,6 -22,8 -33,11 -9,2 -18,6 -27,8 23,0 46,0 69,0 0,0 0,0 0,-1 1,0 1,0 1,0 6,-7 13,-12 21,-17 10,-6 21,-13 32,-18 9,-3 38,-11 44,4 5,13 -14,21 -23,24 -11,4 -24,5 -36,7 -3,1 -5,1 -8,2 3,0 6,0 9,0 12,-2 24,-3 36,-5 9,-3 19,-5 28,-6 10,-1 31,4 25,18 -4,10 -22,12 -31,12 -9,1 -17,0 -26,-3 -13,-3 -26,-8 -40,-12 -16,1 -31,1 -47,1 4,1 9,3 12,4 11,4 26,9 31,21 5,12 -13,21 -23,19 -10,-3 -18,-8 -25,-15 -10,-10 -13,-23 -27,-29 -13,0 -26,0 -39,0 -14,0 -27,0 -40,0 6,2 13,6 18,10 9,5 20,18 14,29 -7,11 -20,9 -30,4 -18,-8 -19,-28 -28,-43 -4,0 -8,0 -12,0 -11,0 -21,0 -32,0 19,7 40,23 26,38 -7,7 -20,-1 -26,-6 -10,-7 -18,-20 -21,-32 0,0 0,0 0,0 -9,-1 -17,-1 -25,-2 -1,0 -1,-2 0,-2z"/>
  </g>
 </g>
</svg>
