<?xml version="1.0" encoding="UTF-8"?>
<!DOCTYPE svg PUBLIC "-//W3C//DTD SVG 1.1//EN" "http://www.w3.org/Graphics/SVG/1.1/DTD/svg11.dtd">
<!-- Creator: CorelDRAW X7 -->
<svg xmlns="http://www.w3.org/2000/svg" xml:space="preserve" width="2.94307in" height="0.591106in" version="1.1" style="shape-rendering:geometricPrecision; text-rendering:geometricPrecision; image-rendering:optimizeQuality; fill-rule:evenodd; clip-rule:evenodd"
viewBox="0 0 3350 673"
 xmlns:xlink="http://www.w3.org/1999/xlink">
 <defs>
  <style type="text/css">
   <![CDATA[
    .fil0 {fill:#652D20}
    .fil1 {fill:#B49D71}
   ]]>
  </style>
 </defs>
 <g id="Layer_x0020_1">
  <metadata id="CorelCorpID_0Corel-Layer"/>
  <g id="_2422689760320">
   <path class="fil0" d="M851 152l-1 25c49,14 45,-30 45,120 -15,-4 -85,-50 -158,-2 -44,29 -65,86 -60,136 21,198 265,132 188,74 -4,1 -78,57 -120,-21 -22,-43 -19,-102 9,-142 28,-39 95,-42 122,-4 50,70 -18,191 50,216 16,6 70,15 67,-14 -4,-31 -45,15 -45,-42l0 -269c0,-23 1,-55 -18,-70 -16,-13 -60,-14 -79,-7z"/>
   <path class="fil0" d="M1198 388c-47,0 -94,-3 -135,16 -39,18 -58,60 -43,101 35,97 226,53 148,-8 -20,16 -29,32 -60,27 -26,-4 -40,-22 -39,-49 3,-56 86,-49 129,-49 0,29 -5,81 5,105 12,28 54,33 80,25l3 -27c-42,-4 -35,1 -35,-80 0,-36 3,-77 -3,-110 -20,-108 -209,-88 -209,-8 -1,16 7,29 23,35 35,13 0,-81 101,-60 41,8 35,48 35,82z"/>
   <path class="fil0" d="M2511 368c14,-21 2,-65 72,-64 54,1 53,39 53,84 -47,0 -94,-3 -135,16 -85,40 -54,159 52,159 67,0 91,-41 52,-64 -19,13 -32,28 -59,25 -27,-3 -40,-22 -39,-49 2,-57 86,-49 129,-49 0,25 -4,87 5,106 11,26 54,32 80,24l2 -25 -27 -4c-35,-71 31,-218 -60,-252 -36,-14 -101,-12 -131,8 -38,26 -44,79 6,85z"/>
   <path class="fil0" d="M1391 308c-10,-14 -11,-22 -32,-27 -15,-4 -40,-6 -55,0l-4 24c13,3 26,2 36,6 14,27 7,69 7,100 0,148 6,105 -40,120l-2 25c19,6 106,6 123,0l1 -25 -27 -4c-15,-32 -7,-135 5,-166 17,-47 85,-72 115,-31 36,50 -25,203 48,226 11,3 71,17 55,-25 -41,-15 -39,19 -39,-90 0,-41 5,-88 -12,-121 -35,-69 -131,-63 -179,-12z"/>
   <path class="fil0" d="M2203 307c-13,-13 -3,-18 -29,-26 -11,-3 -42,-6 -52,-1 -16,7 -13,25 10,28 24,4 23,7 23,34l-1 171c-5,22 -22,12 -39,18 -11,35 20,28 43,28 23,0 57,4 78,-3l1 -25 -27 -4c-13,-36 -9,-126 3,-160 22,-63 85,-67 110,-45 50,47 -4,189 37,225 16,13 54,15 73,10l2 -26c-44,-11 -41,6 -41,-90 0,-39 6,-87 -11,-122 -15,-33 -50,-48 -84,-49 -47,0 -62,8 -96,37z"/>
   <path class="fil0" d="M423 308c-8,-10 -7,-18 -20,-24 -13,-6 -82,-17 -69,15 8,17 20,3 36,14 11,11 4,201 4,203 -7,19 -24,8 -35,15 -13,9 -7,26 13,28 19,2 88,3 104,-3l2 -25 -28 -4c-10,-32 -22,-173 42,-209 19,-11 55,-11 71,4 50,46 -3,190 38,225 15,12 53,15 72,9l2 -25c-21,-6 -34,2 -40,-27 -4,-18 -1,-44 -1,-63 0,-37 7,-91 -10,-123 -36,-68 -131,-59 -181,-10z"/>
   <path class="fil0" d="M3256 525c10,19 8,25 32,31 16,4 44,5 59,0l3 -28c-51,0 -42,-10 -42,-56 0,-35 0,-69 0,-103 0,-28 8,-69 -18,-84 -16,-9 -73,-21 -68,19 10,7 15,3 30,11 9,24 5,123 -3,147 -13,36 -47,75 -90,64 -88,-23 13,-219 -70,-245 -14,-4 -58,-9 -64,7 -13,30 32,11 42,34 6,16 0,129 2,157 8,101 124,108 187,46z"/>
   <path class="fil0" d="M1 281l-1 25c27,8 19,-7 40,15 14,29 -47,259 106,244 36,-4 56,-14 82,-39 16,16 10,28 45,32 23,3 62,8 50,-27 -50,-17 -43,30 -43,-147 0,-23 6,-70 -7,-88 -14,-21 -50,-24 -74,-16l-3 24c23,14 35,-9 35,57 0,32 1,57 -5,87 -9,44 -50,94 -100,75 -68,-27 -5,-194 -46,-231 -17,-16 -58,-19 -79,-11z"/>
   <path class="fil1" d="M1710 578c-61,-2 -56,94 54,95 38,0 62,1 92,-22 74,-56 52,-186 52,-297l0 -171c3,-23 23,-17 40,-20l1 -27c-19,-5 -71,-3 -84,12 -15,19 -10,64 -10,88 0,67 0,134 0,201 0,49 12,139 -22,176 -18,20 -50,26 -75,19 -43,-11 -32,-28 -48,-54z"/>
   <path class="fil0" d="M2735 164c6,15 -5,3 15,8 14,4 27,3 27,41l0 281c0,37 -14,35 -28,40 -17,6 -8,-4 -14,10 0,13 25,7 53,7 22,0 43,0 65,0 -1,-37 -38,4 -38,-49l0 -84c60,0 85,25 116,78 20,33 60,104 97,44 -31,-20 -27,3 -68,-65 -26,-43 -27,-43 -65,-73 23,-20 34,-29 55,-57 9,-13 13,-22 25,-32 22,-18 37,-6 37,-20 -4,-9 6,-7 -15,-7l-103 1c4,26 6,4 30,22 4,34 -44,83 -79,83l-30 0 0 -194c0,-43 -44,-46 -69,-41 -12,2 -5,-1 -11,7z"/>
   <path class="fil1" d="M1966 139l0 23c52,14 41,-32 41,184 0,37 0,74 0,110 0,93 0,63 -40,75l-2 25c17,5 119,5 134,0l2 -25c-22,-6 -39,5 -41,-25 -5,-58 6,-295 -2,-332 -9,-42 -67,-51 -92,-35z"/>
   <path class="fil0" d="M1821 498c-21,6 -17,15 -47,17 -15,2 -34,-5 -47,-15 -56,-41 -45,-154 16,-178 59,-23 65,12 100,20l0 -49c-33,-8 -88,-36 -150,9 -118,84 -38,291 113,249 30,-8 45,-32 15,-53z"/>
   <path class="fil1" d="M1866 5c-53,23 -23,119 33,90 45,-23 30,-117 -33,-90z"/>
   <path class="fil1" d="M2014 5c-53,23 -21,114 35,91 52,-21 21,-115 -35,-91z"/>
  </g>
 </g>
</svg>
