<?xml version="1.0" encoding="UTF-8"?>
<!DOCTYPE svg PUBLIC "-//W3C//DTD SVG 1.1//EN" "http://www.w3.org/Graphics/SVG/1.1/DTD/svg11.dtd">
<!-- Creator: CorelDRAW X7 -->
<svg xmlns="http://www.w3.org/2000/svg" xml:space="preserve" width="2.94667in" height="0.643874in" version="1.1" style="shape-rendering:geometricPrecision; text-rendering:geometricPrecision; image-rendering:optimizeQuality; fill-rule:evenodd; clip-rule:evenodd"
viewBox="0 0 615 134"
 xmlns:xlink="http://www.w3.org/1999/xlink">
 <defs>
  <style type="text/css">
   <![CDATA[
    .fil0 {fill:#642D20}
    .fil1 {fill:#B49D71}
   ]]>
  </style>
 </defs>
 <g id="Layer_x0020_1">
  <metadata id="CorelCorpID_0Corel-Layer"/>
  <g id="_1308474831584">
   <path class="fil0" d="M157 29c0,7 4,2 7,5 1,3 0,15 0,20 -14,-9 -39,-3 -39,23 0,7 3,14 6,18 9,11 30,10 30,2 0,-2 0,-3 -1,-4 -2,0 -14,9 -22,-3 -1,-2 -2,-3 -2,-6 -4,-13 3,-27 13,-27 31,0 0,45 27,45 6,0 6,1 6,-3 0,-3 -4,-2 -7,-3 -2,-6 -1,-45 -1,-58 0,-12 -5,-11 -15,-11 -2,0 -2,1 -2,2z"/>
   <path class="fil0" d="M255 56c-2,-6 -8,-5 -14,-5 -2,0 -2,1 -2,3 0,5 7,0 7,5l0 35c0,6 -7,-1 -7,6 0,2 1,2 2,2 22,0 22,2 21,-5 -8,0 -6,0 -6,-22 0,-19 21,-24 25,-11 5,17 -10,38 15,38 2,0 2,-1 2,-5 -11,0 -6,-8 -7,-29 -1,-11 -7,-18 -16,-18 -17,0 -14,4 -20,6z"/>
   <path class="fil0" d="M454 61c0,4 4,6 7,7 2,-3 1,-5 3,-8 3,-5 7,-4 11,-4 9,0 9,7 9,15 -8,0 -19,-1 -26,4 -14,8 -7,28 10,28 12,0 18,-8 10,-12 -2,2 -4,5 -9,5 -11,0 -15,-18 6,-18l9 0c0,17 -3,24 13,24 2,0 2,0 3,0 0,-7 1,-4 -4,-5 -10,-3 10,-48 -19,-48 -8,0 -23,1 -23,12z"/>
   <path class="fil0" d="M191 61c0,4 3,6 7,7 1,-3 1,-6 3,-8 3,-5 20,-9 20,7l0 4c-11,0 -34,-1 -34,15l0 3c0,16 31,18 31,7 0,-3 1,-1 -3,-5 -3,2 -5,5 -10,5 -10,0 -14,-18 7,-18l9 0c0,19 -3,24 14,24 2,0 2,-1 2,-3 0,-5 -7,4 -7,-11 -1,-12 2,-26 -3,-33 -6,-9 -25,-7 -30,-3 -3,1 -6,5 -6,9z"/>
   <path class="fil0" d="M404 56c-1,-6 -8,-5 -14,-5 -2,0 -2,2 -2,5 10,2 8,-4 8,36 0,9 -8,1 -8,8 0,2 1,2 2,2 7,0 15,1 21,0 0,-5 1,-4 -2,-5 -3,-1 -4,0 -4,-4 0,-12 -2,-29 8,-34 6,-4 14,-3 16,4 4,15 -7,39 13,39 3,0 5,1 5,-3 0,-6 -7,4 -7,-10 0,-11 1,-27 -4,-33 -6,-8 -19,-8 -26,-4 -2,1 -4,3 -6,4z"/>
   <path class="fil0" d="M78 56c-2,-6 -8,-5 -14,-5 -3,0 -2,2 -2,5 10,2 8,-5 8,37 0,3 -2,3 -5,4 -4,0 -3,0 -3,5 5,1 18,1 23,0 0,-5 1,-4 -3,-5 -2,-1 -3,0 -3,-4 0,-12 -2,-29 7,-34 7,-4 15,-3 17,4 5,14 -9,45 18,39 0,-6 1,-4 -4,-5 -3,-1 -4,-2 -4,-6 0,-12 2,-28 -3,-35 -6,-8 -19,-8 -26,-4 -3,1 -4,3 -6,4z"/>
   <path class="fil0" d="M0 53l0 0c0,2 0,2 1,3 10,0 7,2 7,27 0,6 1,10 4,14 4,7 18,8 25,4 3,-2 4,-3 6,-5 1,7 9,6 15,6 2,0 2,-1 2,-5 -7,0 -4,0 -8,-2 0,-9 0,-17 0,-26 0,-17 1,-18 -13,-18 -1,0 -3,1 -3,2 0,7 6,1 6,6 0,14 3,29 -8,36 -5,3 -13,3 -16,-6 -3,-13 7,-38 -10,-38 -1,0 -8,-1 -8,2z"/>
   <path class="fil0" d="M555 53c0,5 2,3 7,4 6,11 -3,31 5,41 6,6 18,7 25,3 3,-2 3,-3 6,-5 3,7 4,6 15,6 2,0 2,0 2,-1l0 -2 0 0c0,-3 -3,-2 -5,-2 -3,-1 -3,-3 -2,-6l-1 -32c-1,-9 -6,-8 -13,-8 -3,0 -2,1 -2,3 0,3 3,3 5,3 2,6 1,14 1,20 0,19 -20,26 -24,14 -5,-17 6,-40 -10,-40 -6,0 -9,-1 -9,2z"/>
   <path class="fil1" d="M328 116c-15,0 -11,-10 -14,-10 -9,0 -14,17 15,17 9,0 16,-6 19,-12 3,-7 2,-19 2,-29l0 -46c1,-12 8,-1 8,-9 0,-3 -2,-3 -7,-3 -12,0 -10,7 -10,19l0 57c0,9 -5,16 -13,16z"/>
   <path class="fil0" d="M502 31c3,0 7,0 7,4l0 59c0,4 -4,4 -7,4l0 3 21 0 0 -3c-7,0 -6,0 -6,-21 13,0 16,5 21,14 2,4 5,8 7,10 2,1 4,2 6,2 4,-1 4,-2 5,-5 -12,-3 -10,-10 -18,-19 -1,-1 -5,-5 -6,-6 4,-2 6,-5 9,-9 5,-6 6,-9 12,-9l0 -3 -21 0 0 3c3,0 3,0 5,3 -1,4 -5,10 -9,12 -3,2 -7,2 -11,2l0 -35c0,-10 -8,-8 -15,-8l0 2z"/>
   <path class="fil1" d="M361 27c0,4 2,3 7,4 2,7 1,50 1,61 0,5 -3,5 -8,5 -1,4 -1,1 0,5 5,0 9,0 13,0 11,0 12,2 12,-3 0,-3 -4,-2 -7,-3 -3,-6 -1,-48 -1,-61 0,-10 -4,-11 -15,-11 -1,0 -2,1 -2,3z"/>
   <path class="fil0" d="M301 77c0,7 3,14 6,17 14,15 40,5 28,-3 -6,2 0,3 -12,3 -7,0 -13,-9 -12,-19 1,-17 14,-20 22,-16 3,2 2,3 5,4 1,-2 1,-4 1,-7 0,-8 -38,-10 -38,21z"/>
   <path class="fil1" d="M338 10c0,10 16,13 16,-3 0,-10 -16,-10 -16,3z"/>
   <path class="fil1" d="M365 7c0,17 16,12 16,4 0,-14 -16,-13 -16,-4z"/>
   <path class="fil1" d="M569 126c0,-6 10,-9 10,1 0,7 -10,6 -10,-1zm-2 8l2 0 0 -2c1,0 4,2 5,2 12,0 9,-16 3,-16 -4,0 -5,0 -7,2 0,1 0,1 0,1 0,0 -1,0 -1,0l0 -8 -2 0 0 21z"/>
   <path class="fil1" d="M459 129c0,-6 7,-6 7,0 0,4 -7,3 -7,0zm1 -11c0,2 1,4 2,5 -4,0 -5,2 -5,5 0,7 10,9 11,2 4,2 0,4 7,4 -4,-5 -12,-12 -12,-16 5,-3 4,-1 5,0 2,2 -1,2 3,2 0,-2 0,-3 -1,-4 -4,-5 -10,-1 -10,2z"/>
   <path class="fil1" d="M389 126c0,-6 10,-8 10,1 0,6 -10,6 -10,-1zm-3 -1c0,4 2,9 7,9 3,0 4,-1 6,-2l0 2 3 0 0 -16 -3 0 0 3c-8,-5 -13,-1 -13,4z"/>
   <path class="fil1" d="M491 118c1,3 2,7 3,9l-6 0c0,-2 1,-3 1,-5 1,-2 1,-2 2,-4zm-9 16c4,0 4,-1 4,-4l9 0c1,1 1,1 1,4l4 0 -7 -20c-5,0 -3,-1 -7,8 -1,3 -3,9 -4,12z"/>
   <path class="fil1" d="M548 124l-2 0 0 -8c7,0 8,1 8,5 0,3 -3,3 -6,3zm-4 10l2 0 0 -8c4,0 4,1 5,4 2,2 2,4 6,4 -1,-4 -4,-5 -4,-9 7,0 4,-11 0,-11l-9 0 0 20z"/>
   <path class="fil1" d="M592 121c3,0 4,1 4,4l-9 0c1,-2 2,-4 5,-4zm-7 4c0,3 -1,5 2,7 4,4 12,3 12,-4 -5,0 -2,4 -7,4 -3,0 -4,-2 -5,-5 3,0 11,1 13,-1 1,-2 -3,-8 -6,-8 -3,0 -9,0 -9,7z"/>
   <path class="fil1" d="M368 123l-5 0 0 -7c7,0 7,0 7,5 0,2 0,2 -2,2zm-7 11l2 0 0 -8c4,0 11,0 11,-5 0,-8 -7,-7 -13,-7l0 20z"/>
   <path class="fil1" d="M406 134l3 0 0 -6c5,4 2,6 8,6 -1,-4 -5,-5 -6,-8 1,-3 5,-4 6,-8 -4,0 -3,1 -5,3 -1,1 -2,2 -3,3l0 -11 -3 0 0 21z"/>
   <path class="fil1" d="M505 121l0 -3 -3 0 0 16 3 0c0,-10 -1,-15 7,-13 2,4 2,9 2,13l2 0c0,-7 2,-14 -4,-16 -2,0 -2,0 -4,0 -2,1 -2,1 -3,3z"/>
   <path class="fil1" d="M436 123c0,2 2,3 4,4 0,0 3,0 3,1 2,1 2,0 2,3 -4,2 -6,-1 -6,-1 -2,-1 1,-1 -3,-1 0,3 2,5 5,5 4,1 6,-1 6,-5 0,-3 -2,-3 -4,-4 -6,-1 -5,-4 -2,-4 2,-1 2,0 2,0 4,2 -1,2 4,2 -1,-7 -11,-5 -11,0z"/>
   <path class="fil1" d="M420 118l-2 0c0,3 0,3 2,3 0,5 0,8 1,12 3,1 3,1 6,1l0 -2c-2,0 -2,-1 -4,-1l0 -10c4,0 4,0 4,-3l-4 0 0 -4 -3 0 0 4z"/>
   <path class="fil1" d="M521 118l-3 0 0 3 3 0 0 11c2,2 1,2 7,2l0 -2c-6,0 -5,-2 -5,-11 4,0 4,0 5,-3l-5 0 0 -4 -2 0 0 4z"/>
   <path class="fil1" d="M603 118l-2 0 0 3 2 0c0,5 0,8 1,12 3,1 3,1 6,1l0 -2c-5,0 -4,-2 -4,-11 4,0 4,0 4,-3l-4 0 0 -4 -3 0 0 4z"/>
   <path class="fil1" d="M376 134l3 0 0 -11c3,-2 1,-2 6,-2l0 -3c-4,0 -4,1 -5,1 -1,0 0,0 -1,0 -2,0 -1,-1 -3,-1l0 16z"/>
   <polygon class="fil1" points="429,134 433,134 433,118 429,118 "/>
   <polygon class="fil1" points="560,134 563,134 563,118 560,118 "/>
   <polygon class="fil1" points="530,134 533,134 533,118 530,118 "/>
   <path class="fil1" d="M530 114l0 1c5,2 4,-3 2,-3 -1,0 -2,1 -2,2z"/>
   <path class="fil1" d="M560 114c0,5 6,-2 2,-2 -2,0 -2,1 -2,2z"/>
   <path class="fil1" d="M429 114l0 1c2,1 1,1 4,1 0,-6 -4,-3 -4,-2z"/>
  </g>
 </g>
</svg>
