<?xml version="1.0" encoding="UTF-8"?>
<!DOCTYPE svg PUBLIC "-//W3C//DTD SVG 1.1//EN" "http://www.w3.org/Graphics/SVG/1.1/DTD/svg11.dtd">
<!-- Creator: CorelDRAW X7 -->
<svg xmlns="http://www.w3.org/2000/svg" xml:space="preserve" width="2.05145in" height="2.01333in" version="1.1" style="shape-rendering:geometricPrecision; text-rendering:geometricPrecision; image-rendering:optimizeQuality; fill-rule:evenodd; clip-rule:evenodd"
viewBox="0 0 12378 12148"
 xmlns:xlink="http://www.w3.org/1999/xlink">
 <defs>
  <style type="text/css">
   <![CDATA[
    .fil0 {fill:#622E29}
   ]]>
  </style>
 </defs>
 <g id="Layer_x0020_1">
  <metadata id="CorelCorpID_0Corel-Layer"/>
  <g id="_2344387938416">
   <path class="fil0" d="M8186 12027l121 0 0 21 -121 0 0 -21zm178 121l-158 0c-451,-18 -1048,-176 -1336,-393 -438,-331 -287,-467 -636,-491 -214,-15 -315,-19 -498,-65 -175,-44 -342,-36 -346,-197 111,0 642,101 724,140 0,-633 495,-1156 925,-1488 110,-84 300,-350 443,-362 28,120 -18,176 -60,282 -102,253 -202,522 -322,764 -280,559 -388,507 -611,777 -18,21 -22,31 -33,48 426,0 776,-101 986,-101 -50,-103 -40,-270 -41,-422 -1,-385 145,-745 331,-1058 137,-232 484,-720 668,-960 46,-60 51,-72 148,-74 0,536 -174,1157 -368,1644 -73,183 -170,369 -276,528 -49,75 -137,153 -161,241 137,0 290,-79 400,-123 114,-46 234,-108 365,-138 -70,-146 9,-517 40,-644 112,-465 393,-784 597,-1193 65,-131 45,-183 147,-194 78,162 37,771 20,985 -26,322 -162,535 -302,744 133,-35 913,-639 946,-764 3,-13 -205,-470 -233,-612 -50,-251 -57,-499 -18,-765l271 -1399c88,2 81,5 105,76l108 435c50,199 84,378 109,596 16,146 55,510 34,658l-75 629c151,-111 413,-666 477,-831 86,-218 123,-261 38,-509 -55,-161 -72,-358 -96,-547 -78,-615 198,-977 470,-1428 58,-95 99,-227 162,-321 43,-64 7,-45 116,-45 176,367 26,1404 -72,1799 -109,434 -321,537 -433,853l-199 546c71,-47 104,-114 166,-176 397,-402 542,-405 1041,-629 63,-28 392,-230 442,-180 53,113 -145,324 -212,411 -172,221 -313,301 -497,489l-511 453c-289,243 -469,368 -848,461 -250,60 -240,101 -401,262 -107,108 -242,191 -326,317 126,-11 246,-63 398,-84 137,-19 266,-23 423,-40 563,-59 626,18 868,23 0,179 -83,212 -221,283 -107,55 -245,97 -365,137 -376,127 -1301,387 -1684,242 -63,-24 -106,-71 -198,-55 -118,21 -225,117 -334,171l-154 87c361,0 640,113 898,228 464,208 672,148 771,335 -119,224 -371,314 -725,303 -404,-13 -800,-198 -1091,-417 -102,-77 -186,-137 -287,-217 -78,-61 -62,-73 -165,-48 -210,50 -392,118 -628,118l116 45c383,104 764,365 1124,545 109,55 337,120 349,255 -75,35 -180,55 -305,60zm-1666 -724c175,41 1035,583 1448,583l0 20c-385,0 -885,-153 -1183,-345 -125,-80 -186,-139 -265,-258zm0 0l0 0zm140 -80c462,38 894,312 1322,529l86 54c-247,0 -1333,-482 -1408,-583zm1288 -161c619,144 732,382 1629,382 -238,206 -854,43 -1087,-60 -129,-57 -479,-228 -542,-322zm40 -121c285,0 527,58 782,143l513 191c42,14 53,16 91,30l82 38c-235,0 -554,-80 -772,-153 -125,-42 -222,-73 -343,-120 -66,-26 -111,-39 -180,-61 -42,-14 -53,-16 -91,-30l-82 -38zm462 -624l-11 44 11 -44zm382 141c425,-99 970,-190 1410,-239 162,-19 343,-62 501,-62l-94 46c-280,113 -1659,470 -1817,255zm443 -201c32,-44 68,-50 129,-72 180,-68 333,-91 543,-121 263,-37 568,-28 857,-28l0 20c-256,0 -1448,199 -1529,201zm-3037 604c60,-115 600,-883 664,-926 -39,167 -476,875 -664,926zm684 -1207c-17,73 -773,1152 -825,1186 64,-272 169,-493 316,-689l509 -497zm0 0l0 0zm402 1026c0,-220 61,-494 128,-697 43,-127 197,-494 274,-550l-358 1170c-14,32 -5,16 -19,41 -15,26 -12,20 -25,36zm1126 -363c0,-222 60,-444 118,-605l244 -501c0,145 -176,683 -241,845 -33,82 -70,204 -121,261zm121 41l463 -1469c0,418 -29,887 -241,1208 -45,66 -161,220 -222,261zm241 -1147l0 0zm1247 -60l6 6c0,0 -8,-4 -6,-6zm-2655 1649l179 -525c30,-95 58,-188 83,-279 79,-290 400,-1108 563,-1227 0,213 -214,906 -294,1134 -78,224 -386,800 -531,897zm3138 -2152l0 0zm-623 483c-53,-224 -21,-1439 -21,-1770l21 0c0,479 161,677 75,1382 -5,39 -23,154 -29,193 -7,40 -9,67 -17,104 0,1 -12,48 -12,48l-17 43zm-101 80c-90,-103 -103,-236 -127,-376 -53,-312 -38,-648 15,-963l56 -325c1,-4 10,-46 11,-50l18 -42c1,-3 4,-9 7,-14 0,289 15,622 0,906 -5,89 -20,96 -21,200 -4,342 37,488 41,664zm623 -181c37,-138 398,-504 528,-619 142,-125 387,-342 579,-346 -45,67 -865,767 -966,845 -55,42 -86,84 -141,120zm1529 -1126c-108,161 -98,113 -172,210 -86,110 -327,301 -417,388l-211 191c-42,44 -59,61 -105,96 -238,182 -469,451 -865,543 30,-41 343,-222 469,-316 83,-62 141,-114 224,-178 55,-43 59,-48 106,-95l422 -382c41,-34 63,-63 101,-100l215 -188c67,-52 157,-149 233,-169zm0 0l0 0zm-1106 -1649c0,141 -11,224 -22,360 -8,106 -9,239 -19,363l-120 664c-79,-337 -120,-1064 161,-1387zm-40 1448c8,-105 63,-314 80,-504 8,-95 12,-172 23,-277 8,-72 11,-191 23,-280 28,-217 76,-767 236,-950 0,410 5,773 -52,1135 -36,232 -183,782 -310,876zm40 -1448l0 0z"/>
   <path class="fil0" d="M4747 7522c0,559 128,1039 681,1290 526,239 1059,95 1527,-187 165,-100 368,-252 502,-383 244,-239 455,-573 571,-918 98,-295 122,-767 -265,-767 -75,0 -90,180 -136,346 -114,408 -258,647 -516,973 -148,188 -307,347 -497,488 -324,243 -883,471 -1148,48 -444,-710 358,-2353 715,-3015 145,-270 365,-639 548,-880 104,-137 316,-431 426,-540 53,-52 59,-63 103,-118 88,-113 522,-450 689,-518 1556,-633 710,2603 -114,2322 -363,-124 -44,-715 86,-841 54,-53 105,-97 126,-176 -130,-30 -100,-80 -302,-80 -250,0 -442,306 -442,563 0,270 -22,411 175,609 468,468 1190,55 1526,-497 240,-394 411,-795 411,-1359 0,-519 -327,-946 -845,-946 -510,0 -751,50 -1188,301 -205,118 -425,269 -597,428 -343,318 -582,553 -850,961 -67,102 -137,189 -205,298 -339,541 -644,1102 -828,1726 -72,245 -153,570 -153,872z"/>
   <path class="fil0" d="M6335 161l121 0 0 20 -121 0 0 -20zm-160 -20l120 0 0 20 -120 0 0 -20zm-6175 5209c0,989 104,1608 460,2477 188,460 506,1036 862,1390l302 321c167,167 324,311 514,452l365 279c140,105 242,164 392,251 269,155 572,294 889,399 170,56 308,107 498,145 159,32 376,78 565,78 -37,-158 -303,-149 -435,-187 -329,-96 -632,-193 -944,-324 -617,-259 -1231,-698 -1703,-1173 -485,-488 -891,-1048 -1168,-1689 -544,-1259 -630,-2788 -120,-4094 175,-450 402,-895 692,-1279l294 -369c100,-114 204,-255 327,-338 -25,93 -212,273 -275,349 -104,122 -176,225 -271,352 -46,62 -76,122 -118,184 -169,255 -301,544 -416,831 -229,572 -388,1164 -388,1824 0,1107 78,1585 471,2526 185,442 420,831 713,1198 286,359 599,667 954,956 716,584 1809,1113 2729,1113 -15,-58 -14,-51 -65,-76 -77,-40 -487,-111 -627,-158 -90,-30 -151,-50 -241,-80 -164,-55 -300,-105 -448,-176 -82,-39 -140,-60 -221,-100 -83,-42 -139,-71 -209,-113 -256,-155 -520,-312 -758,-490 -181,-135 -354,-272 -513,-431 -263,-263 -496,-554 -703,-866 -200,-300 -300,-490 -458,-809 -239,-480 -483,-1335 -483,-2051 0,-940 90,-1634 449,-2407 187,-403 425,-786 700,-1130l283 -340c618,-668 1401,-1154 2284,-1397 839,-231 1792,-197 2631,12 493,123 961,325 1402,569 281,155 540,342 790,538 65,52 118,90 175,147 165,168 322,290 486,500 198,254 393,486 561,766 395,661 661,1434 752,2204 16,134 -27,225 106,236 96,-114 -117,-963 -149,-1078 -88,-311 -200,-591 -322,-884 -163,-394 -424,-790 -687,-1124 -168,-214 -387,-456 -603,-623 -201,-155 -333,-348 -648,-559l-370 -233c-68,-41 -126,-67 -194,-109 -314,-191 -1262,-559 -1572,-559l0 -20c155,0 390,56 531,92 174,44 324,96 477,147 553,183 1180,492 1631,863 116,95 229,187 323,300 94,114 216,198 307,316 210,271 311,281 572,675 444,669 767,1416 894,2224 47,300 -27,473 152,431 0,-387 -108,-788 -201,-1146 -177,-684 -516,-1229 -901,-1794 -187,-275 -411,-474 -643,-705 -232,-232 -471,-416 -737,-610 -66,-48 -129,-81 -197,-125 -214,-139 -429,-250 -666,-360 -712,-330 -1534,-489 -2468,-489 -830,0 -2017,332 -2694,725 -352,205 -717,416 -1022,688l-185 156c-127,97 -233,228 -338,346 -220,247 -411,499 -581,786l-248 437c-18,39 -26,68 -47,114 -295,635 -496,1365 -496,2098z"/>
   <path class="fil0" d="M5109 3218c-106,-25 -226,-153 -281,-242 -248,-403 -91,-889 237,-1149 234,-186 474,-218 888,-218 -6,77 0,53 -116,186 -50,57 -88,102 -137,164 -316,404 -335,573 -514,1015 -26,64 -70,159 -77,244zm-724 -905c0,347 -21,517 200,805 82,106 278,287 443,301 -34,71 -69,173 -98,244 -352,884 -694,1891 -1261,2621 -197,254 -541,534 -893,534 -1023,0 -1053,-1441 -488,-1794 127,-80 338,-146 484,-135 70,6 191,32 246,58 329,156 409,577 289,914 -18,51 -131,253 -49,253 238,0 503,-224 503,-503 0,-466 -438,-905 -905,-905 -296,0 -460,-18 -731,135 -170,95 -209,133 -340,263 -617,609 -496,1976 1111,1976 608,0 1125,-427 1448,-885 492,-697 879,-1784 1170,-2592 110,-308 179,-77 554,-391 174,-145 379,-517 -135,-517 -5,243 -87,386 -261,503l419 -1029 244 -439c142,68 604,63 604,-101l0 -80 -322 0c-570,0 -1316,-487 -1916,115 -160,162 -316,395 -316,649z"/>
   <path class="fil0" d="M3258 8427c0,-188 167,-507 302,-543 0,220 33,543 101,684 -136,32 -403,101 -403,-141zm523 -845c39,-165 113,-488 312,-531 115,-25 -16,9 90,9 29,119 37,158 -145,337 -52,51 -188,167 -257,185zm-201 121c-611,324 -692,1026 -121,1026 97,0 198,-30 262,-60 144,273 444,306 483,160 -197,0 -280,8 -342,-261 254,-68 680,-885 161,-764 12,147 177,188 -100,564 -38,51 -35,61 -102,79 -61,-127 -60,-518 -60,-724 161,-37 523,-341 523,-523 0,-189 0,-261 -221,-261 -306,0 -483,434 -483,764z"/>
  </g>
 </g>
</svg>
